<?xml version="1.0" encoding="UTF-8" standalone="no"?>
<svg
   xmlns:dc="http://purl.org/dc/elements/1.1/"
   xmlns:cc="http://creativecommons.org/ns#"
   xmlns:rdf="http://www.w3.org/1999/02/22-rdf-syntax-ns#"
   xmlns:svg="http://www.w3.org/2000/svg"
   xmlns="http://www.w3.org/2000/svg"
   xmlns:sodipodi="http://sodipodi.sourceforge.net/DTD/sodipodi-0.dtd"
   xmlns:inkscape="http://www.inkscape.org/namespaces/inkscape"
   width="45.74419mm"
   height="62.546242mm"
   viewBox="0 0 45.744189 62.546239"
   version="1.1"
   id="svg846"
   inkscape:version="1.0.2-2 (e86c870879, 2021-01-15)"
   sodipodi:docname="123.svg">
  <defs
     id="defs840" />
  <sodipodi:namedview
     id="base"
     pagecolor="#ffffff"
     bordercolor="#666666"
     borderopacity="1.0"
     inkscape:pageopacity="0.0"
     inkscape:pageshadow="2"
     inkscape:zoom="1.4"
     inkscape:cx="94.737842"
     inkscape:cy="142.72161"
     inkscape:document-units="mm"
     inkscape:current-layer="layer1"
     inkscape:document-rotation="0"
     showgrid="false"
     fit-margin-top="0"
     fit-margin-left="0"
     fit-margin-right="0"
     fit-margin-bottom="0"
     inkscape:window-width="1267"
     inkscape:window-height="728"
     inkscape:window-x="52"
     inkscape:window-y="0"
     inkscape:window-maximized="0" />
  <metadata
     id="metadata843">
    <rdf:RDF>
      <cc:Work
         rdf:about="">
        <dc:format>image/svg+xml</dc:format>
        <dc:type
           rdf:resource="http://purl.org/dc/dcmitype/StillImage" />
        <dc:title></dc:title>
      </cc:Work>
    </rdf:RDF>
  </metadata>
  <g
     inkscape:label="Layer 1"
     inkscape:groupmode="layer"
     id="layer1"
     transform="translate(11.983263,-94.518587)">
    <g
       id="g990"
       transform="translate(-2.4986952,-1.899334)">
      <path
         style="fill:#d0cfcf;stroke-width:0.264583"
         d="m 4.0377225,158.90145 c -0.2313271,-0.23132 -0.1929001,-3.18047 0.052958,-4.06433 0.101196,-0.36381 0.3572185,-0.66146 0.5689388,-0.66146 0.534524,0 0.6299544,1.05851 0.2504626,2.77812 -0.368232,1.66859 -0.6105126,2.20952 -0.8723594,1.94767 z M 34.462564,152.6543 c -0.168212,-4.70672 -0.324535,-5.86106 -0.757486,-5.59348 -0.138163,0.0854 -0.701403,-0.3324 -1.251643,-0.92842 -0.550244,-0.59602 -1.381869,-1.21664 -1.848059,-1.37916 -0.618731,-0.21569 -0.888852,-0.50164 -1.000308,-1.05892 -0.173011,-0.86505 -0.27731,-0.90252 -0.997011,-0.35817 -0.723066,0.54691 -0.886992,0.48658 -0.741791,-0.27299 0.189101,-0.98921 -0.461333,-0.84232 -2.0502,0.46302 -2.577674,2.11769 -3.255984,2.57969 -3.787572,2.57969 -0.292703,0 -1.673987,0.61603 -3.069518,1.36895 -1.395529,0.75293 -2.894515,1.44195 -3.331078,1.53115 -0.553897,0.11319 -0.819322,0.3393 -0.878374,0.74829 -0.103225,0.71492 -0.607785,0.99319 -2.169063,1.19626 -0.657445,0.0855 -1.84807,0.45314 -2.6458337,0.81695 -2.8227519,1.28729 -6.4286316,1.4557 -11.3723536,0.53114 -1.0914062,-0.20411 -2.3069756,-0.60942 -2.7012653,-0.90068 -0.39429,-0.29126 -0.9407062,-0.52956 -1.2142584,-0.52956 -0.2735521,0 -0.8805267,-0.42107 -1.3488323,-0.9357 -0.4683058,-0.51463 -1.216679,-1.00874 -1.6630517,-1.09802 l -0.8115869,-0.16231 0.1339334,-1.66853 c 0.08719,-1.08621 0.032763,-1.70225 -0.1559491,-1.76516 -0.4146774,-0.13822 -0.3644365,-2.95314 0.061876,-3.46682 0.193467,-0.23311 0.5139418,-1.74158 0.7121663,-3.35214 0.4013446,-3.26092 0.4577685,-3.42632 1.1688008,-3.42632 0.3416054,0 0.8091355,-0.55171 1.472018,-1.73706 0.9905786,-1.77132 2.7739533,-4.22266 3.4936199,-4.80216 0.2219714,-0.17873 0.4575765,-0.92833 0.5305785,-1.68808 0.10024,-1.04322 0.2477751,-1.39704 0.6235059,-1.49529 0.93524734,-0.24457 0.40062418,-2.34202 -1.1089441,-4.35064 -1.3229253,-1.76028 -2.154153,-3.93058 -2.0499085,-5.35225 l 0.079173,-1.07973 1.0583333,0.095 c 0.5820833,0.0523 1.713177,0.11178 2.51354158,0.13229 1.36413845,0.035 1.46075,-0.004 1.54375799,-0.62418 0.12563683,-0.93849 0.38445493,-1.12015 1.67877753,-1.17829 1.0612614,-0.0477 3.1607735,-0.49938 6.0378809,-1.29905 l 1.190625,-0.33093 v -2.10159 c 0,-2.70283 -0.5874086,-3.95635 -2.2642893,-4.83196 -1.0238314,-0.53461 -1.4651217,-0.60038 -3.4242522,-0.51041 -3.42481662,0.15728 -5.2107633,1.26315 -6.5156793,4.03452 -0.7736477,1.64308 -0.7822388,2.05384 -0.049875,2.38466 0.7939985,0.35866 0.9694122,0.99185 0.2432553,0.87808 -0.3680825,-0.0577 -0.7857347,0.18425 -1.2188706,0.70601 l -0.6589175,0.79375 -0.5301649,-0.62462 c -0.3081811,-0.36309 -0.5301647,-1.00825 -0.5301647,-1.54085 0,-2.12514 2.6413589,-8.18947 4.43756513,-10.18827 0.64349125,-0.716067 1.72221437,-1.442439 3.10305967,-2.089482 4.3022728,-2.015978 7.4179981,-2.306436 9.7954389,-0.913162 0.804485,0.471459 1.965676,0.815999 3.545535,1.052006 2.616073,0.390801 4.452564,1.136308 6.944198,2.818928 2.731133,1.84437 5.239126,4.8517 6.30029,7.55469 0.334579,0.85223 1.304968,3.04061 2.156418,4.86305 2.832777,6.06327 3.158117,8.82643 1.572469,13.35521 -0.907936,2.59318 -0.894234,3.09149 0.126312,4.59336 0.821833,1.20943 0.817676,1.91113 -0.0172,2.90332 -0.365792,0.43472 -0.837216,1.20238 -1.047604,1.70592 -0.210392,0.50354 -0.933104,1.55597 -1.606029,2.33875 l -1.223497,1.42324 1.903648,1.75134 c 1.047006,0.96323 2.363457,2.0348 2.925445,2.38125 l 1.021799,0.62991 0.0071,6.28385 c 0.0039,3.45612 -0.0344,6.28386 -0.08514,6.28386 -0.05074,0 -0.165658,-2.05383 -0.255367,-4.56407 z M 10.20394,125.25141 c 0,-0.11932 -0.5649898,-0.72464 -1.255533,-1.34515 -1.1996034,-1.07794 -1.2327093,-1.14488 -0.7431802,-1.50283 0.281794,-0.20606 0.9101391,-0.37465 1.3963226,-0.37465 1.9962686,0 3.3167896,-1.04663 4.4536976,-3.52997 1.325054,-2.8943 1.76943,-5.39255 1.063421,-5.97848 -0.308007,-0.25562 -0.463222,-0.12848 -0.84873,0.69521 -0.259485,0.55442 -1.667442,2.2284 -3.128791,3.71995 l -2.6569986,2.71191 -1.1906249,-0.74843 c -0.6548438,-0.41164 -1.5829703,-0.88355 -2.0625033,-1.04868 -1.2372913,-0.42609 -1.3350766,0.0876 -0.3495032,1.83592 0.4391891,0.77909 0.8714002,1.95231 0.9604693,2.60716 0.3002473,2.20744 0.3587768,2.32938 1.2529806,2.61053 1.5910634,0.50024 3.1089731,0.66991 3.1089731,0.34751 z m -8.6100549,-3.00746 c 0.5262427,-1.31521 0.8901435,-6.39946 0.4763407,-6.6552 -0.3811508,-0.23557 -0.7680902,0.89289 -1.2556442,3.66191 -0.23060262,1.30969 -0.52433112,2.69855 -0.65272997,3.08636 -0.26030025,0.7862 -0.14040591,1.01468 0.53245754,1.01468 0.28882524,0 0.61904583,-0.40664 0.89957593,-1.10775 z m 6.9508971,-7.25419 c -0.087919,-0.0879 -0.316122,-0.0973 -0.5071181,-0.0209 -0.2110669,0.0845 -0.148372,0.14715 0.1598525,0.15985 0.2789147,0.0115 0.4351843,-0.0511 0.3472656,-0.13897 z m 27.2072548,35.7027 c -0.541903,-8.76399 -0.705577,-14.57182 -0.852532,-30.25118 -0.156197,-16.66559 -0.01545,-24.22618 0.445685,-23.941183 0.119475,0.07384 0.285856,0.877142 0.369732,1.785116 0.289205,3.130617 0.725437,54.762987 0.464886,55.023537 -0.157621,0.15762 -0.316236,-0.8125 -0.427771,-2.61629 z"
         id="path1008" />
      <path
         style="fill:#a1a09f;stroke-width:0.264583"
         d="m 3.9913603,158.29286 c -0.2059247,-0.64881 0.055124,-3.44024 0.3692575,-3.94852 0.1539179,-0.24905 0.2812436,-0.22993 0.5392756,0.081 0.2698509,0.32516 0.2742499,0.74373 0.021873,2.08128 -0.3891973,2.06267 -0.6709767,2.60365 -0.9304057,1.78626 z M 34.51529,151.66212 c -0.166619,-3.93105 -0.318878,-4.7625 -0.87213,-4.7625 -0.174167,0 -0.726974,-0.43092 -1.228463,-0.95759 -0.501489,-0.52668 -1.282861,-1.11695 -1.736381,-1.31172 -0.592145,-0.2543 -0.871085,-0.58663 -0.989552,-1.17897 l -0.164971,-0.82485 -0.771083,0.54907 c -0.975116,0.69434 -1.182264,0.69363 -0.809559,-0.003 0.749967,-1.40133 -0.781438,-0.9055 -2.918012,0.94477 -1.110433,0.96164 -2.149602,1.60422 -3.005236,1.85832 -0.719333,0.21362 -2.224148,0.92556 -3.344029,1.58211 -1.263893,0.74096 -2.356617,1.19371 -2.881095,1.19371 -0.573818,0 -0.890857,0.14858 -0.988026,0.46302 -0.320278,1.03647 -0.617143,1.27007 -1.983416,1.56071 -0.785825,0.16716 -2.202678,0.64341 -3.1485636,1.05833 -1.6588837,0.72768 -1.8697188,0.75416 -5.9531248,0.74762 -4.33097879,-0.007 -7.0945561,-0.45049 -8.0584123,-1.2934 -0.2245397,-0.19635 -0.7059104,-0.44534 -1.0697125,-0.5533 -0.3638021,-0.10796 -1.0347039,-0.59829 -1.4908926,-1.08963 -0.5548302,-0.59758 -1.0706082,-0.89334 -1.5578918,-0.89334 H -9.183718 l 0.1761979,-1.71979 c 0.1142849,-1.11549 0.080639,-1.71979 -0.095754,-1.71979 -0.4060177,0 -0.3296309,-2.71043 0.1013833,-3.59737 0.2053344,-0.42254 0.5038751,-2.00145 0.6634242,-3.50868 0.3230242,-3.05157 0.3766608,-3.2127 1.0693876,-3.2127 0.4447045,0 1.3947483,-1.21943 1.9202637,-2.46476 0.2649725,-0.62792 2.3658914,-3.34669 3.0851017,-3.9924 0.3402599,-0.30548 0.5628272,-0.8266 0.5650169,-1.32291 0.00589,-1.33499 0.2814711,-2.00952 0.82099568,-2.00952 0.27406943,0 0.49830803,-0.1149 0.49830803,-0.25533 0,-0.7418 -0.96891311,-2.94483 -1.78805231,-4.06552 -1.6601931,-2.27136 -2.7552617,-5.87615 -1.9384242,-6.38098 0.1332503,-0.0824 1.092799,0.0544 2.1323305,0.30388 2.17016931,0.52084 2.64242409,0.37344 3.0418526,-0.9494 0.2153494,-0.7132 0.3556894,-0.82666 0.8645371,-0.69895 0.3341007,0.0839 1.409039,-0.0822 2.3887519,-0.36906 0.9797127,-0.28684 2.462186,-0.65449 3.2943852,-0.817 0.832199,-0.16251 1.7711089,-0.5044 2.0864663,-0.75976 0.5233589,-0.4238 0.5570229,-0.61701 0.3859039,-2.21489 -0.2109503,-1.96983 -1.0147703,-3.76886 -2.0010845,-4.47863 -2.2942492,-1.65099 -7.45555602,-0.88286 -9.3720725,1.39479 -1.3563864,1.61197 -2.4822218,4.56728 -1.6991033,4.46014 0.6772288,-0.0927 0.9611241,0.016 1.1193288,0.42822 0.1242348,0.32375 0.036451,0.3753 -0.402077,0.23612 -0.4216135,-0.13381 -0.7065298,0.004 -1.1466539,0.55641 -1.1512624,1.44382 -1.8793472,0.0892 -1.4110996,-2.62531 0.2966709,-1.71987 3.3547653,-8.00643 4.35358424,-8.9497 0.94377931,-0.891302 3.98467036,-2.404117 6.05655996,-3.013086 2.5619008,-0.752992 4.4487828,-0.655194 6.6141418,0.342816 1.082452,0.4989 2.669443,0.967999 3.828968,1.131806 5.398834,0.762698 10.736781,5.089144 12.943901,10.491134 0.466757,1.1424 1.49162,3.44631 2.277472,5.1198 2.614462,5.56755 2.952589,8.42004 1.488565,12.55771 -0.461457,1.30419 -0.836986,2.61388 -0.834504,2.91042 0.0024,0.29654 0.35764,1.13448 0.789239,1.86208 0.431599,0.72761 0.786757,1.47889 0.789239,1.66952 0.0024,0.19063 -0.412208,0.89236 -0.921531,1.5594 -0.509323,0.66704 -0.926042,1.3591 -0.926042,1.5379 0,0.17881 -0.598744,1.07413 -1.330544,1.9896 -0.731798,0.91547 -1.297345,1.75562 -1.256771,1.86701 0.116456,0.31971 3.962501,3.66266 4.781021,4.15563 0.406172,0.24463 0.797203,0.6841 0.868958,0.97661 0.07175,0.29251 0.09662,2.73449 0.05525,5.42662 l -0.07521,4.89479 z M 10.20394,125.25748 c 0,-0.11599 -0.4762499,-0.67593 -1.0583332,-1.24432 -1.2244745,-1.19567 -1.3408155,-1.71979 -0.3817462,-1.71979 1.4801994,0 3.0858494,-0.6154 3.9635004,-1.51909 1.826453,-1.88063 3.359724,-7.15089 2.436408,-8.37457 -0.354936,-0.4704 -0.41542,-0.42362 -0.991791,0.767 -0.337592,0.69738 -1.714372,2.41108 -3.05951,3.80824 l -2.4457057,2.54029 -1.8427464,-0.99219 c -2.1838563,-1.17585 -2.7054923,-1.24262 -2.7054923,-0.34634 0,0.35521 0.1052369,0.71088 0.2338601,0.79038 0.4868746,0.3009 1.3532813,2.56881 1.518544,3.97493 0.094585,0.80477 0.3405391,1.60311 0.5465657,1.7741 0.6407226,0.53176 3.7864466,0.98151 3.7864466,0.54136 z m -8.6769083,-2.69953 c 0.6447489,-1.32323 1.1153055,-5.49448 0.7328615,-6.49645 -0.2791508,-0.73134 -0.3196699,-0.7495 -0.6546908,-0.29333 -0.1964177,0.26744 -0.4953998,1.339 -0.6644045,2.38125 -0.16900445,1.04224 -0.48002691,2.58389 -0.69116096,3.42589 -0.21113406,0.84199 -0.30887537,1.65225 -0.21720281,1.80058 0.31374265,0.50765 1.04322107,0.10843 1.49459757,-0.81794 z m 7.1605898,-7.58188 c -0.1791317,-0.0725 -0.5363191,-0.0769 -0.79375,-0.01 -0.2574311,0.0671 -0.1108689,0.12638 0.3256936,0.13178 0.4365625,0.005 0.6471878,-0.0495 0.4680564,-0.12197 z M 35.783287,150.07462 C 34.724631,132.53068 34.474224,95.657817 35.42016,96.603755 c 0.325712,0.325711 0.382942,3.119734 0.677939,33.097945 0.203502,20.68021 0.101613,27.27384 -0.314812,20.37292 z"
         id="path1006" />
      <path
         style="fill:#847e78;stroke-width:0.264583"
         d="m 4.1225751,156.88764 c 0.00439,-2.0787 0.2888695,-2.92177 0.810037,-2.4006 0.2328867,0.23288 0.1992677,0.791 -0.1393217,2.31289 -0.2454531,1.10327 -0.4976881,2.00594 -0.5605227,2.00594 -0.062834,0 -0.1124209,-0.86321 -0.1101926,-1.91823 z m 30.4763129,-5.22552 c -0.08277,-3.52006 -0.277662,-4.49467 -0.951206,-4.75688 -0.306507,-0.11932 -0.914472,-0.60079 -1.351034,-1.06992 -0.436563,-0.46913 -1.180703,-1.01849 -1.653646,-1.2208 -0.632973,-0.27077 -0.859896,-0.53734 -0.859896,-1.01013 0,-0.90499 -0.354936,-1.01902 -1.171813,-0.37647 l -0.704842,0.55443 0.17326,-0.69032 c 0.313311,-1.24834 -0.896117,-0.87846 -2.94586,0.90093 -1.119082,0.97148 -2.245249,1.70195 -2.89137,1.87542 -0.582083,0.15629 -2.144633,0.86897 -3.47233,1.58374 -1.327698,0.71477 -2.730421,1.29958 -3.117157,1.29958 -0.438782,0 -0.756957,0.17409 -0.846241,0.46302 -0.314804,1.01876 -0.594825,1.23383 -1.974878,1.51687 -0.790521,0.16212 -2.270747,0.64618 -3.2893933,1.07567 -1.7834141,0.75194 -1.9992318,0.78019 -5.8208331,0.76176 -4.38045137,-0.0211 -7.2897985,-0.53789 -8.1348634,-1.44496 -0.2665896,-0.28616 -0.7395069,-0.52028 -1.0509273,-0.52028 -0.3114204,0 -0.9479185,-0.41672 -1.41444,-0.92604 -0.5727671,-0.62532 -1.0829271,-0.92604 -1.570964,-0.92604 h -0.722743 l 0.1812983,-1.69294 c 0.1183511,-1.10515 0.083121,-1.75362 -0.1014685,-1.8677 -0.4147883,-0.25635 -0.3448028,-2.71218 0.096721,-3.39398 0.2087182,-0.3223 0.5151663,-1.83199 0.6809957,-3.35486 0.1658295,-1.52287 0.3638132,-2.86967 0.4399637,-2.99288 0.076151,-0.12322 0.4112244,-0.32774 0.7446082,-0.45449 0.3348759,-0.12732 0.9948126,-0.91929 1.4745919,-1.76962 0.9538202,-1.69048 2.0513148,-3.21729 3.2126414,-4.46937 0.5506434,-0.59367 0.7988427,-1.18727 0.9183544,-2.19636 0.1221695,-1.03153 0.2573703,-1.3469 0.53220621,-1.24144 1.05965728,0.40663 0.34512672,-2.5648 -1.02557501,-4.26493 -1.1471894,-1.4229 -2.1140136,-3.71076 -2.1593314,-5.10976 l -0.038568,-1.19063 0.9260416,0.0318 c 0.5093229,0.0175 1.5286876,0.12069 2.265255,0.22939 1.53246534,0.22615 2.2326616,-0.20018 2.2326616,-1.3594 0,-0.59975 0.076399,-0.64681 0.794187,-0.48915 0.4724564,0.10377 1.3031364,0.007 2.0505208,-0.23793 0.6909835,-0.22679 2.1437451,-0.59694 3.228359,-0.82254 2.3756048,-0.49414 2.9227662,-0.92002 2.9227662,-2.2749 0,-2.7363 -0.9795356,-4.78102 -2.7434951,-5.72688 -1.1292822,-0.60554 -4.9381652,-0.59236 -6.3086341,0.0218 -1.56812322,0.70277 -2.8789682,2.03394 -3.6890412,3.74626 -0.8838911,1.86835 -0.9497356,2.51595 -0.2558094,2.51595 0.2732235,0 0.6314522,0.16228 0.7960637,0.36062 0.2416614,0.29119 0.1759792,0.33706 -0.3410974,0.23821 -0.4763463,-0.0911 -0.7558402,0.0538 -1.0910765,0.56542 -1.394538,2.12833 -2.0208885,-1.21821 -0.8233995,-4.39936 0.8344252,-2.21666 2.3134897,-5.1082 3.31485394,-6.48047 0.63908647,-0.875799 1.34350227,-1.368921 3.26624546,-2.286515 4.2795985,-2.042358 7.0771703,-2.31808 9.8439531,-0.970195 0.939493,0.45769 2.427923,0.901553 3.56312,1.062553 4.575376,0.648904 8.847841,3.476217 11.898945,7.874137 0.327842,0.47256 1.050941,1.96084 1.606886,3.30729 0.555942,1.34646 1.547744,3.57919 2.203997,4.96164 2.318523,4.88413 2.638182,7.83664 1.28569,11.87514 -0.995976,2.97395 -1.022781,3.59445 -0.207266,4.79834 1.044321,1.54165 1.047776,1.86266 0.03535,3.28665 -0.508219,0.71482 -0.924039,1.42973 -0.924039,1.58869 0,0.15895 -0.484052,0.87477 -1.075671,1.59071 -1.850469,2.23933 -1.848792,2.16334 -0.08291,3.75598 0.855501,0.77158 2.112351,1.79253 2.793,2.26878 1.230527,0.86101 1.238501,0.87642 1.406284,2.718 0.09281,1.01865 0.126746,3.16177 0.07542,4.7625 l -0.09332,2.91042 z M 10.315526,125.17028 c -0.101324,-0.16394 -0.6441318,-0.71358 -1.2062394,-1.22141 -0.5621073,-0.50783 -1.0220131,-1.07141 -1.0220131,-1.2524 0,-0.20458 0.5546563,-0.38632 1.466103,-0.48039 0.8063565,-0.0832 1.8481535,-0.37323 2.3151045,-0.64446 2.240553,-1.30145 4.62965,-8.17102 3.242181,-9.32252 -0.31989,-0.26548 -0.481452,-0.11417 -0.955982,0.89535 -0.541017,1.15096 -5.0691008,6.2385 -5.5524811,6.2385 -0.1248804,0 -0.843176,-0.36328 -1.5962124,-0.80728 -1.5154153,-0.89353 -2.7376834,-1.23662 -2.9842354,-0.83769 -0.088522,0.14323 0.2065629,0.94912 0.6557452,1.79087 0.4598958,0.86183 0.9146164,2.22322 1.0408319,3.11615 0.1232755,0.87214 0.3958934,1.75746 0.6058178,1.96738 0.696327,0.69633 4.396585,1.21354 3.99138,0.5579 z M 1.3179683,123.1119 c 0.8822309,-0.97485 1.5267905,-6.94299 0.8255751,-7.64421 -0.3319285,-0.33193 -0.9064863,0.7782 -1.18853208,2.29641 -0.1518912,0.81761 -0.46402888,2.3461 -0.69363932,3.39665 -0.22961017,1.05055 -0.3416247,2.03281 -0.24892079,2.18281 0.25999519,0.42068 0.80223411,0.32446 1.30551709,-0.23166 z m 7.5630551,-7.96228 c 0,-0.14552 -0.3274218,-0.25622 -0.7276041,-0.24599 -0.6447483,0.0165 -0.6673453,0.0445 -0.1984375,0.24599 0.7226776,0.31054 0.9260416,0.31054 0.9260416,0 z m 26.9138206,34.13125 c -0.35756,-6.20071 -0.688083,-15.69454 -0.875077,-25.13542 -0.221219,-11.16884 0.08339,-27.694117 0.50275,-27.274756 0.314653,0.314654 0.772113,34.282096 0.648335,48.140526 -0.06328,7.08464 -0.08992,7.49676 -0.276008,4.26965 z"
         id="path1004" />
      <path
         style="fill:#6b6b6b;stroke-width:0.264583"
         d="m 4.1453169,156.95378 c -0.019299,-2.04908 0.2951509,-3.09905 0.727562,-2.42937 0.2219696,0.34376 -0.00172,2.06828 -0.4695592,3.62 -0.1942176,0.64418 -0.2428348,0.41982 -0.2580028,-1.19063 z m 30.4426331,-5.8539 c -0.05633,-3.03607 -0.256188,-3.92835 -0.939451,-4.19433 -0.306956,-0.1195 -0.915289,-0.6011 -1.351851,-1.07023 -0.436563,-0.46913 -1.180703,-1.01849 -1.653646,-1.2208 -0.632973,-0.27077 -0.859896,-0.53734 -0.859896,-1.01013 0,-0.8457 -0.448765,-1.09288 -1.029692,-0.56715 -0.527359,0.47725 -0.941935,0.56569 -0.682268,0.14554 0.09424,-0.15249 0.105516,-0.44881 0.02506,-0.6585 -0.215905,-0.56264 -1.385157,-0.0499 -2.678718,1.1746 -1.462368,1.38433 -2.490573,2.03403 -3.537238,2.23511 -0.490271,0.0942 -1.923145,0.7667 -3.184163,1.49448 -1.261017,0.72778 -2.614459,1.32323 -3.007648,1.32323 -0.566928,0 -0.794972,0.19166 -1.101815,0.92604 -0.32317,0.77345 -0.52088,0.92604 -1.199873,0.92604 -0.447121,0 -1.911712,0.44354 -3.254647,0.98565 -2.4357833,0.98325 -2.4510003,0.98561 -6.2781598,0.97397 -4.18798758,-0.0127 -6.9451848,-0.49856 -8.133229,-1.43308 -0.3681608,-0.28959 -0.8885644,-0.52654 -1.1564524,-0.52654 -0.267888,0 -0.8539747,-0.4032 -1.3024149,-0.896 -0.4484404,-0.49281 -1.1718133,-0.9673 -1.6074958,-1.05444 l -0.7921495,-0.15843 0.1761617,-1.55706 c 0.1173551,-1.03728 0.077727,-1.6179 -0.1187125,-1.7393 -0.4247097,-0.26249 -0.3632472,-2.71011 0.085415,-3.40147 0.2091587,-0.3223 0.5237832,-1.87164 0.6991652,-3.44298 0.3011006,-2.69771 0.358921,-2.87768 1.0372211,-3.22845 0.4032549,-0.20853 1.2047043,-1.19013 1.8271511,-2.23786 0.6098437,-1.02652 1.7093882,-2.58807 2.4434323,-3.47012 1.0181624,-1.22344 1.3794816,-1.89749 1.523796,-2.84265 0.1163015,-0.76171 0.313541,-1.21252 0.51204491,-1.17034 1.05919532,0.22504 0.43625927,-2.2397 -1.15261391,-4.56048 -1.2307871,-1.79775 -2.3285079,-4.56772 -2.191292,-5.52946 0.088599,-0.62099 0.7129674,-0.67841 3.2714783,-0.30085 1.53246534,0.22615 2.2326616,-0.20018 2.2326616,-1.3594 0,-0.59475 0.079679,-0.64608 0.7681338,-0.49487 0.4602316,0.10108 1.4942846,-0.0391 2.5796874,-0.34963 0.9963544,-0.28508 2.4962072,-0.65775 3.3330059,-0.82814 1.938197,-0.39467 2.3150055,-0.7787 2.3150055,-2.35936 0,-3.92325 -2.0872461,-6.10848 -5.8389564,-6.11306 -3.68943034,-0.005 -6.8486291,2.51614 -7.5502292,6.02414 -0.1468705,0.73435 -0.096718,0.85355 0.3591333,0.85355 0.2914136,0 0.6645251,0.16228 0.8291366,0.36062 0.2416614,0.29119 0.1759792,0.33706 -0.3410974,0.23821 -0.4763463,-0.0911 -0.7558402,0.0538 -1.0910765,0.56542 -1.3991119,2.13531 -1.9907003,-1.05079 -0.8140618,-4.38428 0.8357402,-2.36769 2.8834603,-6.07766 3.9349404,-7.12914 0.46900014,-0.469 1.7063037,-1.241715 2.7495634,-1.717143 4.3456613,-1.980382 7.0343893,-2.219779 9.7998226,-0.872551 1.017028,0.495462 2.395059,0.908992 3.485253,1.045882 3.691493,0.46352 7.900196,2.882392 10.367859,5.958732 1.928887,2.40466 2.083877,2.67383 3.412919,5.92732 0.622615,1.52416 1.468294,3.36963 1.879288,4.10104 1.087268,1.93493 2.149316,5.77065 2.163053,7.81214 0.0085,1.26174 -0.209659,2.36237 -0.819071,4.13244 -0.456853,1.32696 -0.830643,2.72775 -0.830643,3.11286 0,0.38512 0.357187,1.33312 0.79375,2.10666 0.436562,0.77355 0.79375,1.46975 0.79375,1.54711 0,0.0774 -0.367946,0.60352 -0.817655,1.16923 -0.449713,0.56571 -0.98307,1.42427 -1.185244,1.9079 -0.202173,0.48363 -0.846259,1.42313 -1.431303,2.08777 -0.585044,0.66464 -1.063715,1.35839 -1.063715,1.54166 0,0.3757 4.057063,4.00497 4.935487,4.41507 0.525973,0.24555 0.583936,0.53366 0.752639,3.7409 0.100531,1.91117 0.131038,3.89157 0.0678,4.4009 -0.06324,0.50932 -0.13404,-0.10088 -0.157329,-1.35599 z M 10.470676,125.26993 c 0.0012,-0.10914 -0.5546264,-0.68341 -1.2351342,-1.27617 -1.3813096,-1.20317 -1.3618731,-1.70039 0.06647,-1.70039 1.0426622,0 2.6239502,-0.59465 3.3688292,-1.26687 1.435518,-1.29547 3.351144,-6.74136 2.842194,-8.08 -0.421699,-1.10916 -0.730102,-1.02594 -1.546035,0.41717 -0.431957,0.76399 -1.790318,2.45354 -3.018581,3.75457 l -2.2332043,2.36549 -1.7460238,-0.97643 c -2.8488763,-1.59318 -3.6247712,-1.26994 -2.3403424,0.97501 0.4981239,0.87063 0.8954055,2.03975 1.0316366,3.03589 0.328686,2.4034 0.8437938,2.81041 3.6835595,2.91052 0.6184635,0.0218 1.1254474,-0.0496 1.1266314,-0.15879 z m -9.195898,-2.11667 c 1.1911753,-1.33457 1.6882268,-7.73906 0.600628,-7.73906 -0.2018811,0 -0.4318577,0.20836 -0.5110591,0.46302 -0.39911843,1.28331 -1.4679123,7.27862 -1.33570663,7.49253 0.23886795,0.3865 0.79402541,0.29005 1.24613773,-0.21649 z m 7.7385371,-8.00364 c 0.096588,-0.15629 -0.1948487,-0.26293 -0.7119892,-0.26054 -0.6626151,0.003 -0.7790037,0.0664 -0.4786358,0.26054 0.5143304,0.33238 0.9851993,0.33238 1.190625,0 z m 26.9138369,36.24791 c -0.456523,-8.57003 -0.614969,-12.67468 -0.863039,-22.35729 -0.325657,-12.71096 -0.105699,-32.369066 0.357005,-31.906361 0.181268,0.181268 0.350512,7.532261 0.498379,21.646671 0.194845,18.59853 0.198978,36.2086 0.0076,32.61698 z"
         id="path1002" />
      <path
         style="fill:#595653;stroke-width:0.264583"
         d="m 4.1394116,158.38694 c 0.012695,-0.30822 0.075391,-0.37092 0.1598525,-0.15985 0.07643,0.19099 0.067031,0.4192 -0.020889,0.50712 -0.087919,0.0879 -0.1504529,-0.0683 -0.1389645,-0.34727 z m -2.2959662,-6.03603 c -0.1392743,-0.36294 -0.5317808,-0.42523 -2.3575875,-0.37418 -1.5140191,0.0423 -2.3217068,-0.0477 -2.6153728,-0.29137 -0.2336829,-0.19394 -0.424878,-0.25202 -0.424878,-0.12906 0,0.12296 -0.1867403,-0.043 -0.4149783,-0.3689 -0.2282381,-0.32586 -0.5442905,-0.51255 -0.7023388,-0.41487 -0.1580481,0.0977 -0.2137217,0.0585 -0.1237189,-0.0872 0.090002,-0.14563 -0.664223,-0.88232 -1.6760568,-1.63709 -1.2746405,-0.95081 -1.8844305,-1.59312 -1.9853367,-2.09121 -0.080102,-0.39539 -0.3195111,-1.05596 -0.5320213,-1.46794 -0.4986094,-0.96661 -0.4939262,-2.64114 0.010112,-3.61584 0.218072,-0.42171 0.5256652,-1.99337 0.6835402,-3.49259 0.2811676,-2.67004 0.5850477,-3.38731 1.4350722,-3.38731 0.1635156,0 0.4894066,-0.40285 0.7242018,-0.89522 0.2347952,-0.49238 0.7899186,-1.30868 1.2336073,-1.81401 0.4436886,-0.50533 0.7201194,-1.01454 0.6142908,-1.13158 -0.1058285,-0.11703 -0.057078,-0.13547 0.1083345,-0.041 0.3968022,0.22667 0.9904676,-0.50389 0.7394807,-0.90999 -0.116351,-0.18826 -0.084042,-0.24789 0.079535,-0.1468 0.5760273,0.35601 2.2499735,-2.68031 2.1334026,-3.8697 -0.065266,-0.66592 0.021511,-0.80554 0.52572601,-0.84585 0.33214177,-0.0266 0.9869855,-0.41079 1.4552083,-0.85386 1.24290129,-1.17614 1.87891119,-1.43058 3.09137809,-1.23669 0.8712798,0.13932 1.0672275,0.0933 1.0672275,-0.25073 0,-0.48994 -0.7804864,-0.96917 -1.5784096,-0.96917 -0.3051757,0 -0.6231353,-0.17791 -0.7065769,-0.39535 -0.083442,-0.21745 -0.2706484,-0.32185 -0.4160153,-0.23201 -0.1453668,0.0898 -0.059666,-0.14897 0.1904455,-0.53069 1.0555473,-1.61096 3.3831437,-0.15747 3.297229,2.059 -0.023098,0.59589 -0.030955,1.21843 -0.01746,1.38343 0.042172,0.51561 2.717543,1.44495 3.7332118,1.29679 0.7686832,-0.11213 0.8118202,-0.0955 0.2600748,0.10021 l -0.6614583,0.23463 0.7449981,0.0264 c 0.9902736,0.0351 1.5885186,-0.30414 3.5489186,-2.01222 2.19636,-1.91367 2.81957,-2.84265 2.981003,-4.44356 0.114943,-1.13989 0.21934,-1.33522 0.754097,-1.41092 0.55907,-0.0791 0.603094,-0.18162 0.443511,-1.03228 -0.30733,-1.6382 -1.769483,-5.38359 -2.377753,-6.09074 -0.321278,-0.37351 -0.718097,-0.59633 -0.881816,-0.49514 -0.471625,0.29148 -0.690351,1.96591 -0.315759,2.41726 0.204277,0.24614 0.222221,0.39397 0.04782,0.39397 -0.153532,0 -0.361298,0.25883 -0.461702,0.57518 -0.408858,1.28819 -4.2697515,4.71649 -5.3116412,4.71649 -0.1803178,0 -0.6630233,-0.12743 -1.0726787,-0.28318 -0.4096557,-0.15575 -0.7745942,-0.27482 -0.8109744,-0.26459 -0.03638,0.0102 -0.3042708,-0.21952 -0.5953125,-0.51056 -0.6526183,-0.65262 -1.4739744,-0.68239 -1.824805,-0.0661 -0.3806494,0.66862 -1.1474995,0.12257 -1.4288513,-1.01744 -0.5333389,-2.16104 -0.5461188,-2.4493 -0.1010163,-2.2785 0.2448496,0.094 1.049838,-0.21618 1.9179603,-0.73894 0.8228089,-0.49547 2.1672824,-1.03093 2.9877186,-1.18992 2.6321019,-0.51007 3.2592995,-0.84213 4.0099315,-2.123 0.41172,-0.70255 0.902232,-1.20049 1.204782,-1.22303 0.280677,-0.0209 0.65915,-0.0507 0.841051,-0.0661 0.181901,-0.0155 0.330729,-0.20672 0.330729,-0.425 0,-0.26458 -0.264583,-0.39687 -0.79375,-0.39687 -0.911121,0 -1.037772,-0.37996 -0.264583,-0.79375 1.296595,-0.69392 0.185411,-1.64654 -3.3072919,-2.83535 -1.7111672,-0.58243 -2.6016145,-0.72199 -4.6480475,-0.72849 -2.3026821,-0.007 -2.6731922,0.0642 -4.10104151,0.79166 -1.74910269,0.89113 -3.06466499,2.5289 -3.57549099,4.45121 -0.7732762,2.90995 -1.6267183,3.62895 -1.7816761,1.50101 -0.1031652,-1.41671 0.4361535,-3.10707 2.0272005,-6.35377 1.4939776,-3.04861 3.34209562,-5.076066 5.0939426,-5.588243 0.6403538,-0.187216 1.2371228,-0.445656 1.3261527,-0.57431 0.08903,-0.128654 0.2356972,-0.22892 0.3259267,-0.222813 0.090229,0.0061 0.6126991,-0.185424 1.1610438,-0.425626 0.672761,-0.294702 1.7713906,-0.441392 3.3782398,-0.451065 2.1080609,-0.01269 2.5414529,0.07003 3.7776519,0.720984 0.843991,0.44443 2.105914,0.824409 3.189931,0.960522 5.971357,0.749791 11.486464,5.273121 13.672759,11.214001 0.385762,1.04825 0.996008,2.44168 1.3561,3.09653 1.973382,3.58867 3.006683,6.91503 3.006683,9.67896 0,1.14592 -0.244761,2.37644 -0.79375,3.99051 -0.436563,1.28354 -0.79375,2.62383 -0.79375,2.97843 0,0.77051 0.558419,2.4021 0.822132,2.4021 0.102663,0 0.123888,0.24004 0.04717,0.53342 -0.07867,0.30084 -0.323443,0.50273 -0.561377,0.46302 -0.314076,-0.0524 -0.466939,0.23386 -0.598189,1.12022 -0.09697,0.65485 -0.368188,1.64976 -0.60272,2.21092 -0.23453,0.56116 -0.36517,1.1194 -0.290317,1.24051 0.07486,0.12112 -0.02122,0.31683 -0.213471,0.43492 -0.401622,0.24666 -1.351442,1.59069 -1.587151,2.24587 -0.09311,0.25881 0.02676,0.58954 0.287674,0.79375 0.411159,0.32179 0.415231,0.30733 0.05042,-0.17909 -0.367486,-0.48998 -0.362805,-0.50246 0.06323,-0.16846 0.253058,0.19839 0.400487,0.45718 0.327618,0.57508 -0.125452,0.20299 1.39477,1.44418 1.769914,1.44505 0.304917,7.9e-4 0.583904,0.3913 0.666615,0.93327 0.108683,0.71216 -0.575889,0.672 -1.091419,-0.064 -0.527902,-0.75368 -3.012448,-2.32404 -3.676991,-2.32404 -0.289597,0 -1.185506,0.73682 -2.071235,1.70344 -0.858491,0.93689 -2.003573,1.9724 -2.544625,2.30114 -0.541055,0.32873 -1.071208,0.72305 -1.178121,0.87625 -0.106913,0.1532 -0.19621,0.18506 -0.198437,0.0708 -0.0021,-0.11426 -0.271942,-0.0592 -0.599364,0.12236 -0.327422,0.18156 -0.684609,0.30481 -0.79375,0.27389 -0.10914,-0.0309 -0.198437,0.0699 -0.198437,0.22399 0,0.15411 -0.109307,0.21264 -0.242906,0.13007 -0.302255,-0.1868 -6.503504,2.56257 -7.19846,3.1915 -0.396512,0.35884 -0.434354,0.51385 -0.171658,0.70319 0.231976,0.16719 0.180779,0.19188 -0.164302,0.0792 -0.302257,-0.0987 -0.707219,0.0227 -1.019965,0.30577 -0.285275,0.25817 -0.595478,0.44378 -0.689341,0.41246 -0.221966,-0.0741 -2.2473736,0.5165 -2.4196182,0.70552 -0.1543029,0.16933 -0.6789602,0.23421 -3.63368,0.44934 -1.8712134,0.13624 -2.2020391,0.0972 -2.3455647,-0.27683 z m 2.5764957,-23.43416 0.6246241,-0.52036 -0.9628759,-0.009 c -0.5800346,-0.005 -1.2112275,0.19809 -1.5874999,0.51156 l -0.6246241,0.52037 0.9628759,0.009 c 0.5800346,0.005 1.2112275,-0.19809 1.5874999,-0.51156 z m 5.1225406,-13.76713 c 0.3969287,-0.17057 0.2111997,-0.23204 -0.743219,-0.24599 -0.7850471,-0.0115 -1.2097552,0.0827 -1.1088642,0.24599 0.1952924,0.31599 1.1167353,0.31599 1.8520832,0 z m 0.7312423,-1.50917 c -0.3254212,-0.0628 -0.9207337,-0.0644 -1.3229167,-0.004 -0.4021833,0.0608 -0.1359297,0.1122 0.5916744,0.11419 0.7276043,0.002 1.0566633,-0.0478 0.7312423,-0.11058 z M 35.7989,148.7517 c -0.584911,-11.1135 -0.757605,-18.90504 -0.761415,-34.35304 -0.0024,-9.36256 0.06467,-17.091703 0.148839,-17.175872 0.08417,-0.08417 0.225957,-0.08011 0.315084,0.009 0.193022,0.19302 0.683115,43.105972 0.574794,50.329262 l -0.07539,5.02709 z m -1.232405,2.49149 c 0.0127,-0.30822 0.07539,-0.37092 0.159851,-0.15985 0.07643,0.19099 0.06703,0.4192 -0.02088,0.50712 -0.08792,0.0879 -0.150453,-0.0684 -0.138964,-0.34727 z m -43.6353614,-3.28524 c 0,-0.3638 0.060053,-0.51263 0.1334522,-0.33073 0.073398,0.1819 0.073398,0.47956 0,0.66146 -0.073399,0.1819 -0.1334522,0.0331 -0.1334522,-0.33073 z m 41.7286394,-1.78594 c -0.329108,-0.41964 -0.319749,-0.429 0.0999,-0.0999 0.254661,0.19972 0.46302,0.40808 0.46302,0.46302 0,0.21776 -0.217273,0.0776 -0.562916,-0.36313 z M 8.2813011,122.52512 c 0.1794759,-0.18082 0.39297,-0.26212 0.4744318,-0.18065 0.081462,0.0815 -0.065382,0.2294 -0.3263193,0.32876 -0.3770837,0.14359 -0.4074748,0.1132 -0.1481125,-0.14811 z m 4.0393059,-1.1254 c 0,-0.0549 0.208359,-0.2633 0.46302,-0.46302 0.419644,-0.32911 0.429003,-0.31975 0.0999,0.0999 -0.345643,0.44073 -0.562915,0.58088 -0.562915,0.36312 z m -13.890625,-0.78609 c -0.2910416,-0.20585 -0.6407671,-0.3851 -0.777168,-0.39833 -0.1364006,-0.0132 -0.2729671,-0.19415 -0.303481,-0.40206 -0.030514,-0.2079 -0.3190949,-0.73457 -0.641291,-1.17036 -0.3221963,-0.43579 -0.6472809,-1.33771 -0.7224101,-2.00425 -0.1288661,-1.1433 -0.093543,-1.22827 0.6240089,-1.50108 0.418334,-0.15905 1.0585786,-0.21186 1.4227659,-0.11734 0.3641873,0.0945 0.9598149,0.17735 1.32361698,0.18409 0.36380208,0.007 0.51320249,0.0665 0.33200128,0.1327 -0.21452416,0.0784 -0.0490043,0.4009 0.47446431,0.92437 0.73932308,0.73932 0.78922349,0.90194 0.62100565,2.02369 -0.32663183,2.17814 -0.49276766,2.54803 -1.18036708,2.62798 -0.35418844,0.0412 -0.88210414,-0.0936 -1.17314584,-0.29941 z m -1.055666,-9.96625 c 0.091404,-0.14789 0.2770243,-0.2004 0.4124899,-0.11667 0.3669887,0.22681 0.2985587,0.38557 -0.1661888,0.38557 -0.2268693,0 -0.3377048,-0.121 -0.2463011,-0.2689 z m 12.850512,-0.67919 c 0.01269,-0.30822 0.07539,-0.37092 0.159853,-0.15985 0.07643,0.191 0.06703,0.4192 -0.02089,0.50712 -0.08792,0.0879 -0.150453,-0.0683 -0.138965,-0.34727 z"
         id="path1000" />
      <path
         style="fill:#4a423a;stroke-width:0.264583"
         d="m 1.7882956,152.29185 c -0.2396326,-0.4282 -0.5543637,-0.48412 -2.35833781,-0.419 -2.30584339,0.0832 -1.78667829,0.32931 -5.76247559,-2.73131 -1.9370892,-1.49119 -2.2489583,-1.87798 -2.2489583,-2.78926 0,-0.39093 -0.1785938,-0.85901 -0.396875,-1.04016 -0.5152443,-0.42762 -0.5206121,-2.43283 -0.00916,-3.42187 0.2132433,-0.41237 0.5180407,-1.86497 0.6773278,-3.22801 0.3711281,-3.17578 0.4193966,-3.32106 1.1656848,-3.50836 0.385481,-0.0967 0.845539,-0.58754 1.2027524,-1.28308 0.3181681,-0.61951 1.1551859,-1.7217 1.8600393,-2.44931 1.672623,-1.72661 2.9742074,-4.1075 2.8613771,-5.23411 -0.06094,-0.60848 0.027587,-0.85733 0.31177022,-0.87638 0.81062114,-0.0544 0.94853943,-0.12781 1.98437498,-1.05672 0.9861295,-0.88433 1.1538674,-0.94144 2.4586321,-0.83699 0.7701642,0.0617 1.4664369,0.005 1.5472729,-0.12571 0.2576603,-0.4169 -0.7243238,-1.23052 -1.5862156,-1.31425 -0.687305,-0.0668 -0.8467905,-0.20778 -0.9160547,-0.80995 -0.1605021,-1.39537 1.7190225,-1.2943 2.6200393,0.1409 0.3997603,0.63676 0.5003794,1.13124 0.3971994,1.95196 -0.1650043,1.31249 0.00212,1.48852 2.0977833,2.20953 2.3970558,0.8247 3.0403308,0.72409 4.8108358,-0.75246 3.024525,-2.52237 3.681406,-3.47891 3.844919,-5.59894 0.0576,-0.7468 0.192505,-0.94318 0.696973,-1.01456 0.573453,-0.0811 0.611375,-0.17716 0.455348,-1.15291 -0.191643,-1.19846 -1.622206,-5.06008 -2.211062,-5.96847 -0.798518,-1.23182 -1.647963,-0.41575 -1.647963,1.58323 0,0.98477 -0.185222,1.38258 -1.25677,2.69919 -1.603578,1.97031 -3.2294555,3.14815 -4.3035066,3.11761 -0.4490347,-0.0128 -1.3376354,-0.32866 -1.9746682,-0.70199 -1.3530574,-0.79294 -1.6528068,-0.82655 -2.2832782,-0.25598 -0.6305031,0.5706 -0.8896233,0.3484 -1.3947986,-1.19609 -0.5589053,-1.70875 -0.5564372,-2.24277 0.00936,-2.02565 0.2600264,0.0998 0.8244586,-0.0993 1.3890624,-0.49001 1.1819469,-0.81786 2.8171748,-1.40453 4.5588393,-1.63557 1.510507,-0.20037 2.6301749,-0.99059 3.1368729,-2.21386 0.18205,-0.43951 0.465384,-0.81177 0.629631,-0.82724 0.164246,-0.0155 0.534626,-0.0452 0.823066,-0.0661 0.798933,-0.0579 0.863061,-0.96406 0.06823,-0.96406 -0.89499,0 -1.077239,-0.28563 -0.45869,-0.71888 1.180501,-0.82685 0.417164,-1.61403 -2.6719517,-2.75539 -2.8472457,-1.052 -6.3421306,-1.32432 -8.3665373,-0.65192 -2.36397154,0.78519 -4.205485,2.81492 -4.7037576,5.18452 -0.3550335,1.68841 -0.864544,2.65365 -1.3104357,2.48254 -1.8489845,-0.70952 2.3008574,-10.28339 5.3975573,-12.452405 0.3278576,-0.229641 1.0763893,-0.525441 1.6634039,-0.657334 0.5870146,-0.131894 1.3557437,-0.466697 1.7082873,-0.744008 1.5896034,-1.250382 5.7010258,-1.311846 8.0522748,-0.120378 0.697739,0.353571 2.114645,0.762845 3.148682,0.909498 3.4539,0.489851 8.097835,2.963857 10.110335,5.386187 1.630891,1.963 3.092413,4.48901 3.871851,6.6919 0.403977,1.14173 1.054817,2.58292 1.446316,3.20264 0.963856,1.52573 1.608119,3.2315 2.159746,5.71818 0.573551,2.58552 0.4323,4.64173 -0.500803,7.29024 -0.790551,2.24389 -0.859549,3.34035 -0.295193,4.69104 0.505939,1.21088 0.498589,1.36372 -0.06342,1.31886 -0.354933,-0.0283 -0.526721,0.29634 -0.750527,1.41848 -0.159631,0.80038 -0.864743,2.56109 -1.566916,3.9127 -0.728059,1.40143 -1.172995,2.54562 -1.035407,2.66262 0.132697,0.11285 0.866344,0.71471 1.630328,1.33747 0.763985,0.62276 1.389063,1.2998 1.389063,1.50453 0,0.5742 -0.471654,0.4414 -0.932995,-0.2627 -0.450911,-0.68817 -2.113015,-1.87436 -3.211727,-2.29209 -0.630573,-0.23974 -0.812625,-0.12252 -2.280131,1.46813 -1.897483,2.0567 -3.214301,2.90814 -6.555256,4.23852 -3.115395,1.24056 -5.775765,2.56553 -7.414183,3.69256 -1.499302,1.03134 -4.8884893,2.01714 -7.5539067,2.19718 -1.6454522,0.11114 -1.9221063,0.0642 -2.1632788,-0.36671 z M 3.8485861,129.2761 c 1.3384342,-0.53554 1.3609817,-0.89732 0.055924,-0.89732 -1.1195208,0 -2.0857463,0.54803 -1.7951682,1.0182 0.2480392,0.40133 0.4732062,0.38568 1.7392442,-0.12088 z m 5.6938956,-14.12648 c 0.3969287,-0.17057 0.2111997,-0.23204 -0.743219,-0.24599 -0.7850471,-0.0115 -1.2097552,0.0827 -1.1088642,0.24599 0.1952924,0.31599 1.1167353,0.31599 1.8520832,0 z m 0.7312423,-1.50917 c -0.3254212,-0.0628 -0.9207337,-0.0644 -1.3229167,-0.004 -0.4021833,0.0608 -0.1359297,0.1122 0.5916744,0.11419 0.7276043,0.002 1.0566633,-0.0478 0.7312423,-0.11058 z m 25.519504,34.71437 c -0.54795,-10.47603 -0.706165,-18.02747 -0.71206,-33.98572 -0.0045,-12.26417 0.07594,-17.234651 0.275775,-17.034814 0.285395,0.285397 0.88859,43.007404 0.722228,51.152834 l -0.07836,3.83645 z M -2.1867829,119.92657 c -1.2265326,-1.26386 -1.8967767,-2.55948 -1.8967767,-3.66658 0,-0.6549 0.1479013,-0.84558 0.8441187,-1.08829 0.7185076,-0.25047 1.0215938,-0.20511 2.0367696,0.30485 0.6559582,0.32951 1.40676604,0.89676 1.66846249,1.26057 0.43427755,0.60372 0.44513605,0.81158 0.12439412,2.38125 -0.31642684,1.54855 -0.42018266,1.72798 -1.04204661,1.80203 -0.51988111,0.0619 -0.9488164,-0.1838 -1.7349216,-0.99383 z"
         id="path998" />
      <path
         style="fill:#463d34;stroke-width:0.264583"
         d="m 1.6603637,152.18426 c -0.404673,-0.47262 -0.6568699,-0.51592 -2.12746209,-0.36525 -1.94629111,0.1994 -2.36711671,0.0299 -4.93937781,-1.98908 -2.7783366,-2.18077 -3.1749999,-2.61741 -3.1749999,-3.49501 0,-0.43781 -0.1785938,-0.97461 -0.396875,-1.19289 -0.5161693,-0.51617 -0.5090189,-2.28516 0.013319,-3.29525 0.2256071,-0.43628 0.5229985,-1.82935 0.6608699,-3.09572 0.3468304,-3.18568 0.4198961,-3.41152 1.1642143,-3.59833 0.4000179,-0.10039 0.824222,-0.52585 1.0965944,-1.09984 0.2443152,-0.51485 1.2650544,-1.83981 2.2683096,-2.94435 1.003255,-1.10454 1.764498,-2.06785 1.6916508,-2.1407 -0.072847,-0.0728 0.1111708,-0.47458 0.4089287,-0.89275 0.3709418,-0.52094 0.5145534,-1.07164 0.4561723,-1.74927 -0.063001,-0.73126 0.017965,-0.99581 0.31070073,-1.01521 0.21774864,-0.0144 0.54439157,-0.0444 0.72587325,-0.0665 0.18148193297,-0.0222 0.80361946,-0.46821 1.38252802,-0.99122 0.9677641,-0.87432 1.1629771,-0.94359 2.4231187,-0.8599 0.763289,0.0507 1.4090544,-0.0262 1.4574416,-0.17355 0.1729603,-0.52671 -0.3995449,-1.00378 -1.3983096,-1.16521 -0.7632822,-0.12338 -1.0395924,-0.30284 -1.0986595,-0.71359 -0.1069737,-0.74388 0.5771816,-1.26223 1.3950476,-1.05696 0.9793385,0.24579 1.5942828,1.37459 1.5942828,2.92648 0,1.32952 0.00257,1.33347 1.2846772,1.96903 0.7065724,0.35026 1.8687555,0.69295 2.5826285,0.76155 1.1049458,0.10617 1.4557038,0.0154 2.3588218,-0.61047 1.403055,-0.97232 4.478051,-4.24767 4.532458,-4.82777 0.02363,-0.25194 0.0534,-0.87478 0.06615,-1.3841 0.01879,-0.75031 0.136157,-0.94209 0.618497,-1.01059 0.427694,-0.0607 0.595313,-0.26257 0.595313,-0.71682 0,-0.76775 -1.655871,-5.47435 -2.239193,-6.36461 -0.814718,-1.24342 -1.721188,-0.51681 -1.738932,1.39389 -0.01412,1.52016 -1.155999,3.19357 -3.316658,4.8605 -1.6160412,1.24677 -2.6503988,1.33893 -4.2145916,0.37552 -1.2407929,-0.76423 -1.6439073,-0.80525 -2.2775984,-0.23177 -0.2569501,0.23254 -0.5794507,0.35341 -0.7166681,0.26861 -0.2808364,-0.17357 -1.1067751,-2.55302 -1.1067751,-3.18851 0,-0.46084 0.434071,-0.5663 0.5761739,-0.13999 0.050107,0.15032 0.5065136,-0.0365 1.014236,-0.41526 1.2423047,-0.92664 2.3424469,-1.36778 4.293188,-1.72152 2.1214553,-0.38469 2.9617473,-0.83863 3.3680163,-1.81945 0.406544,-0.98149 0.953042,-1.45671 1.688087,-1.46792 0.318226,-0.005 0.599208,-0.20855 0.650489,-0.47156 0.06192,-0.31761 -0.0771,-0.46302 -0.442675,-0.46302 -0.707591,0 -0.917926,-0.39038 -0.428977,-0.79617 1.035656,-0.85952 0.03613,-1.74078 -3.310205,-2.91852 -1.1950716,-0.42061 -2.5324408,-0.64104 -4.3832827,-0.72247 -2.3325523,-0.10263 -2.8348555,-0.0435 -4.04268264,0.47612 -1.79303517,0.77135 -3.54997086,2.70244 -4.01235056,4.41007 -0.6695623,2.4728 -1.0823332,3.2976 -1.4836066,2.96457 -1.3732531,-1.13969 1.398289,-8.07941 4.49370891,-11.25187 1.30272869,-1.335156 1.81191579,-1.686733 2.44287929,-1.686733 0.4384114,0 1.1803417,-0.282739 1.6487344,-0.628308 1.8274019,-1.348214 6.0074679,-1.442955 8.4600409,-0.191746 0.597235,0.304687 1.940933,0.675243 2.985992,0.82346 3.279044,0.465052 8.166137,3.071057 10.065059,5.367107 1.454304,1.75845 3.313031,4.94823 3.80846,6.53574 0.504693,1.61718 0.725466,2.08979 1.770409,3.78985 0.959334,1.56079 2.084205,5.42876 2.244961,7.71952 0.110236,1.57087 0.0056,2.23788 -0.689385,4.39299 -0.920473,2.85449 -0.98756,3.66269 -0.434216,5.23104 0.339037,0.96093 0.338254,1.0916 -0.0065,1.0916 -0.440434,0 -0.907757,1.02922 -0.907757,1.99922 0,0.35302 -0.595312,1.78669 -1.322916,3.18593 -0.727604,1.39924 -1.322917,2.62305 -1.322917,2.71958 0,0.0965 0.604144,0.6494 1.342541,1.22861 1.306113,1.02454 2.008637,1.89117 1.745972,2.15384 -0.07115,0.0711 -0.508683,-0.28749 -0.972301,-0.79697 -0.463616,-0.50948 -1.48159,-1.26071 -2.262159,-1.66939 l -1.419217,-0.74305 -1.929397,2.01248 c -1.983301,2.06872 -3.007796,2.7136 -6.565947,4.13298 -3.115805,1.24292 -5.97811,2.6593 -6.840486,3.38495 -0.899674,0.75702 -3.044701,1.55742 -5.6720319,2.11646 -2.579706,0.54891 -3.9300819,0.50306 -4.4913832,-0.1525 z m 2.3562966,-22.91161 c 1.3268756,-0.62964 1.3374449,-0.89387 0.035756,-0.89387 -1.2457638,0 -2.247828,0.5251 -1.9430748,1.0182 0.25932,0.41959 0.8410067,0.38167 1.9073188,-0.12433 z m 5.6213421,-14.09471 c 0.2510909,-0.15909 0.07963,-0.2609 -0.5663903,-0.33632 -1.0857283,-0.12675 -1.5765542,-0.008 -1.3672473,0.33059 0.1884,0.30484 1.4556197,0.30859 1.9336376,0.006 z m 0.4772676,-1.62171 c -0.4181679,-0.12542 -1.0036088,-0.12277 -1.3229164,0.006 -0.4376184,0.17646 -0.2605987,0.22955 0.7501281,0.22499 1.1430903,-0.005 1.2209503,-0.0366 0.5727883,-0.23096 z m 25.647991,34.46787 c -0.539247,-11.74341 -0.680236,-18.72248 -0.684157,-33.86667 -0.0024,-9.31558 0.09771,-16.734897 0.22584,-16.734897 0.126596,0 0.304578,3.839767 0.395515,8.532817 0.253302,13.07203 0.520049,45.97135 0.372737,45.97135 -0.0719,0 -0.211373,-1.75617 -0.309935,-3.9026 z M -1.378856,120.6475 c -0.3314234,-0.16147 -1.075564,-1.00186 -1.6536458,-1.86755 -1.5579468,-2.33304 -1.3707816,-3.63134 0.523213,-3.62934 1.0834539,0.001 2.4433617,0.74676 3.04966101,1.67209 0.35338516,0.53933 0.37156918,0.84306 0.11559883,1.93086 -0.51516199,2.18928 -0.82900676,2.48139 -2.03482704,1.89394 z"
         id="path996" />
      <path
         style="fill:#2d1b00;stroke-width:0.264583"
         d="m 1.8507047,152.17044 c -0.4451458,-0.49188 -0.68424,-0.53128 -2.26236363,-0.37279 -1.20500697,0.12101 -1.96215707,0.0734 -2.38752827,-0.15022 -0.7845305,-0.41238 -5.507222,-4.18544 -5.5478734,-4.43231 -0.016592,-0.10077 -0.069104,-0.51212 -0.1166937,-0.91412 -0.047589,-0.402 -0.2721382,-0.91652 -0.4989985,-1.14337 -0.5306375,-0.53064 -0.533363,-2.28385 -0.00514,-3.30532 0.2240341,-0.43324 0.525525,-1.82631 0.6699795,-3.09572 0.3705942,-3.25663 0.4228817,-3.41936 1.1579643,-3.60386 0.3881633,-0.0974 0.8208539,-0.51876 1.0683481,-1.04031 0.2287793,-0.48212 1.1688484,-1.70152 2.0890419,-2.70979 1.8982333,-2.07993 3.11200638,-4.36593 2.8956659,-5.45366 -0.1202384,-0.60454 -0.064425,-0.68994 0.37569293,-0.57485 0.35063746,0.0917 0.92928014,-0.22172 1.79888567,-0.97436 1.2173169,-1.05358 1.3467267,-1.10187 2.5657994,-0.95749 0.9877459,0.11698 1.3182732,0.0623 1.4331979,-0.23722 0.2379535,-0.62009 -0.4267176,-1.17627 -1.4057368,-1.17627 -0.9936437,0 -1.4198248,-0.57078 -0.9652354,-1.29273 0.4395504,-0.69807 1.0420638,-0.63783 1.9768269,0.19765 0.7958614,0.71132 0.8759195,0.91483 0.826738,2.10154 -0.072254,1.74343 0.4311919,2.16064 3.5776547,2.96482 1.0315218,0.26364 1.2489988,0.22848 2.2489578,-0.36361 1.387256,-0.8214 4.271652,-3.62268 4.817956,-4.67911 0.266621,-0.51559 0.352954,-1.10642 0.245425,-1.6796 -0.150045,-0.79981 -0.09729,-0.90144 0.552662,-1.06456 0.679884,-0.17064 0.709911,-0.24328 0.558186,-1.35025 -0.195927,-1.42943 -1.615332,-5.18029 -2.263021,-5.98015 -0.302779,-0.37392 -0.631796,-0.5229 -0.914876,-0.41427 -0.574382,0.22041 -1.006371,1.3746 -0.808925,2.16128 0.206862,0.82421 -0.219036,1.55526 -1.984862,3.40702 -2.4074044,2.52457 -3.2295884,2.7476 -5.5410682,1.50314 -1.436506,-0.77339 -1.9950943,-0.80332 -2.2569567,-0.12092 -0.2576306,0.67138 -0.6377029,0.40076 -1.0506447,-0.74806 -0.7372707,-2.05112 -0.7974214,-2.40991 -0.3769741,-2.24856 0.2100998,0.0806 0.89849,-0.2003 1.5297559,-0.62426 1.1483605,-0.77125 3.3190312,-1.55283 4.3488945,-1.56589 1.1285021,-0.0143 2.5500033,-0.90782 3.1459293,-1.97744 0.421941,-0.75733 0.78918,-1.08161 1.291242,-1.14018 0.385882,-0.045 0.843722,-0.25309 1.017422,-0.46239 0.258369,-0.31131 0.16683,-0.44319 -0.503189,-0.72491 -0.80101,-0.3368 -0.807646,-0.3541 -0.30196,-0.78708 0.718071,-0.61483 0.419996,-1.16283 -1.032991,-1.89911 -3.4595691,-1.7531 -7.8150549,-2.32303 -10.5399901,-1.37921 -2.5094157,0.86918 -3.7768479,2.49509 -4.8802768,6.26059 -0.4210492,1.43686 -1.1015583,1.61738 -1.2259656,0.32523 -0.276882,-2.87583 3.7440226,-10.24774 6.3145015,-11.576986 0.4146991,-0.214449 0.9618704,-0.389907 1.2159366,-0.389907 0.2540664,0 0.9344085,-0.327422 1.5118717,-0.727605 0.9977839,-0.691464 1.2021849,-0.727604 4.1152632,-0.727604 2.7181625,0 3.1986295,0.07106 4.2423085,0.627474 0.647339,0.34511 1.899559,0.717085 2.782712,0.826611 3.648839,0.452518 8.746452,3.325867 10.724684,6.045127 1.644679,2.26076 3.432233,5.59307 3.436246,6.40576 0.0019,0.37169 0.358937,1.23653 0.79356,1.92186 1.366959,2.15547 1.807361,3.20151 2.50259,5.94417 0.869702,3.43096 0.851112,4.61558 -0.117813,7.50763 -0.887664,2.6495 -0.982504,3.93937 -0.393324,5.34947 0.378682,0.90632 0.373036,0.95836 -0.103984,0.95836 -0.583759,0 -0.826368,0.4934 -0.823757,1.67528 0.0011,0.48518 -0.574958,1.98659 -1.367578,3.56456 l -1.369433,2.7263 1.698307,1.5607 c 0.934072,0.85838 1.541796,1.56631 1.3505,1.57317 -0.191297,0.007 -0.634746,-0.32852 -0.985443,-0.7453 -0.350698,-0.41678 -1.293966,-1.10139 -2.096151,-1.52135 l -1.458521,-0.76357 -1.921661,2.00734 c -2.061929,2.15386 -2.769457,2.5678 -8.333716,4.8757 -1.634855,0.6781 -3.767665,1.75519 -4.739574,2.39354 -1.925818,1.26489 -3.170828,1.74411 -6.1297324,2.35945 -2.6444082,0.54993 -3.5671333,0.51728 -4.1687506,-0.1475 z m 2.7588249,-23.18425 0.6996189,-0.47512 -1.1143704,-0.0809 c -1.2659728,-0.0919 -2.1929212,0.2964 -2.1929212,0.91854 0,0.33709 0.1922899,0.39098 0.9540269,0.26737 0.5247145,-0.0851 1.2688551,-0.36862 1.6536458,-0.62993 z m 2.9485772,-12.77824 c 0,-0.14552 -0.1190625,-0.26458 -0.2645833,-0.26458 -0.1455209,0 -0.2645834,0.11906 -0.2645834,0.26458 0,0.14552 0.1190625,0.26458 0.2645834,0.26458 0.1455208,0 0.2645833,-0.11906 0.2645833,-0.26458 z m 2.5135412,-1.05833 c 0.08994,-0.14552 -0.05186,-0.2737 -0.3151138,-0.28483 -0.2632496,-0.0111 -0.69981,-0.062 -0.9701342,-0.11306 -0.5990212,-0.11312 -1.2282932,0.10522 -1.2282932,0.42619 0,0.32556 2.3109282,0.29953 2.5135412,-0.0283 z m 0.383076,-1.30879 c 0.537233,-0.33988 -0.8032495,-0.66122 -1.7583387,-0.42151 -0.5597559,0.14049 -0.6311321,0.23146 -0.3307292,0.42151 0.2106917,0.13329 0.6807319,0.24235 1.044534,0.24235 0.3638021,0 0.8338419,-0.10906 1.0445339,-0.24235 z m 25.310868,34.05097 c -0.552064,-12.43252 -0.68257,-18.84272 -0.686488,-33.71876 -0.0024,-9.06148 0.09918,-16.518669 0.226055,-16.59708 0.127965,-0.07909 0.303704,4.00137 0.395314,9.17866 0.263964,14.91819 0.513855,45.17208 0.373115,45.17208 -0.07086,0 -0.209455,-1.8157 -0.307996,-4.0349 z M -1.7264867,120.24805 c -1.163184,-0.97876 -2.3570729,-2.92022 -2.3570729,-3.83299 0,-1.60481 2.4526293,-1.64661 4.12401352,-0.0703 0.69880901,0.65906 0.91227775,1.0386 0.77532783,1.37851 -0.10394023,0.25797 -0.25286122,0.94529 -0.33093606,1.52738 -0.25322026,1.88787 -0.83903579,2.1521 -2.21133239,0.99739 z m -0.2404062,-2.18802 c 0,-0.14552 -0.1190625,-0.26458 -0.2645834,-0.26458 -0.1455208,0 -0.2645833,0.11906 -0.2645833,0.26458 0,0.14552 0.1190625,0.26459 0.2645833,0.26459 0.1455209,0 0.2645834,-0.11907 0.2645834,-0.26459 z"
         id="path994" />
      <path
         style="fill:#120000;stroke-width:0.264583"
         d="m 2.8667883,152.5371 c 0.2574309,-0.0671 0.6146183,-0.0627 0.79375,0.01 0.1791314,0.0725 -0.031494,0.12736 -0.4680564,0.12197 -0.4365625,-0.005 -0.5831247,-0.0647 -0.3256936,-0.13177 z m 32.9343137,-4.6453 c -0.08123,-2.07367 -0.06018,-5.91343 0.04676,-8.53281 0.185917,-4.55369 0.196434,-4.38839 0.239845,3.77031 0.02498,4.69305 0.0039,8.53282 -0.04676,8.53282 -0.05069,0 -0.158617,-1.69664 -0.239844,-3.77032 z m -45.1006535,-4.29948 c 0.00198,-0.7276 0.05337,-0.99385 0.1141854,-0.59167 0.060816,0.40218 0.05919,0.9975 -0.00361,1.32292 -0.062802,0.32542 -0.1125601,-0.004 -0.1105738,-0.73125 z m 0.7598518,-2.77812 c 0,-0.3638 0.060053,-0.51263 0.1334521,-0.33073 0.073399,0.1819 0.073399,0.47956 0,0.66146 -0.073399,0.1819 -0.1334521,0.0331 -0.1334521,-0.33073 z m 43.9780287,-2.77813 c 5.29e-4,-1.60072 0.04417,-2.22146 0.09684,-1.3794 0.05266,0.84206 0.05218,2.15175 -0.0011,2.91042 -0.05326,0.75867 -0.09635,0.0697 -0.09576,-1.53102 z m -6.713556,1.73541 c 0,-0.13693 0.1177,-0.32171 0.261554,-0.41062 0.149981,-0.0927 0.194336,0.0135 0.103984,0.24897 -0.175893,0.45837 -0.365538,0.54224 -0.365538,0.16165 z m -36.9749424,-0.94166 c 0.00294,-0.58208 0.05712,-0.78905 0.1204061,-0.45993 0.063287,0.32912 0.060884,0.80537 -0.00534,1.05833 -0.066223,0.25297 -0.1180034,-0.0163 -0.1150661,-0.5984 z m 0.2494402,-2.38125 c 0.00539,-0.43656 0.06469,-0.58312 0.1317736,-0.32569 0.067083,0.25743 0.062672,0.61462 -0.0098,0.79375 -0.072477,0.17913 -0.127363,-0.0315 -0.1219708,-0.46806 z m 1.800503,-2.23334 c 0,-0.13693 0.1176989,-0.32171 0.2615528,-0.41062 0.1499817,-0.0927 0.1943383,0.0135 0.1039842,0.24897 -0.1758926,0.45837 -0.365537,0.54224 -0.365537,0.16165 z m 41.3838142,-5.83645 c 0,-2.54661 0.03968,-3.58841 0.08819,-2.3151 0.0485,1.27331 0.0485,3.3569 0,4.63021 -0.0485,1.2733 -0.08819,0.23151 -0.08819,-2.31511 z m -3.506623,0.52917 c 0,-0.3638 0.06006,-0.51263 0.133453,-0.33073 0.0734,0.1819 0.0734,0.47956 0,0.66146 -0.0734,0.1819 -0.133453,0.0331 -0.133453,-0.33073 z m 4.046085,-10.98021 c 8.9e-5,-5.09323 0.03564,-7.13938 0.07899,-4.54699 0.04335,2.59238 0.04328,6.75956 -1.65e-4,9.26041 -0.04345,2.50085 -0.07892,0.37981 -0.07883,-4.71342 z m -2.479472,5.26962 c 0.0127,-0.30823 0.07539,-0.37092 0.159851,-0.15985 0.07643,0.19099 0.06703,0.41919 -0.02088,0.50712 -0.08792,0.0879 -0.150452,-0.0684 -0.138964,-0.34727 z M 8.3022474,115.49804 c 0.1909961,-0.0764 0.4191992,-0.067 0.5071181,0.0209 0.087919,0.0879 -0.068351,0.15045 -0.3472656,0.13897 -0.3082245,-0.0127 -0.3709193,-0.0754 -0.1598525,-0.15986 z M 7.4875512,114.8522 c 0.1794758,-0.18082 0.39297,-0.26211 0.4744317,-0.18065 0.081462,0.0815 -0.065382,0.2294 -0.3263193,0.32876 -0.3770836,0.14359 -0.4074747,0.1132 -0.1481124,-0.14811 z m -12.2981373,-4.86196 c 0.00294,-0.58208 0.05712,-0.78905 0.120406,-0.45993 0.063287,0.32911 0.060884,0.80536 -0.00534,1.05833 -0.066223,0.25296 -0.1180033,-0.0163 -0.115066,-0.5984 z m 0.2187479,-1.60955 c 0.012695,-0.30822 0.075391,-0.37092 0.1598526,-0.15985 0.07643,0.191 0.067031,0.4192 -0.020889,0.50712 -0.087919,0.0879 -0.1504529,-0.0683 -0.1389636,-0.34727 z m 39.6666112,-5.73907 c 0,-2.747527 0.106053,-4.724235 0.258519,-4.818463 0.239715,-0.148153 0.07905,9.087773 -0.162944,9.366913 -0.05257,0.0606 -0.09557,-1.98617 -0.09557,-4.54845 z m -9.55875,1.46164 c -0.329108,-0.41964 -0.319749,-0.429 0.0999,-0.0999 0.440729,0.34564 0.580887,0.56291 0.363125,0.56291 -0.05494,0 -0.263301,-0.20836 -0.463021,-0.46302 z M 15.032586,98.563066 c 0.254661,-0.06655 0.67138,-0.06655 0.926041,0 0.254662,0.06655 0.0463,0.121 -0.46302,0.121 -0.509323,0 -0.717683,-0.05445 -0.463021,-0.121 z M 6.1855808,96.977209 c 0.1909961,-0.07643 0.4191992,-0.06703 0.5071181,0.02089 0.087919,0.08792 -0.068351,0.150453 -0.3472656,0.138965 -0.3082245,-0.01269 -0.3709194,-0.07539 -0.1598525,-0.159853 z"
         id="path992" />
    </g>
  </g>
</svg>
