<?xml version="1.0"?><svg width="600" height="600" xmlns="http://www.w3.org/2000/svg">
 <title>animated pi</title>

 <metadata id="metadata4915">image/svg+xml</metadata>
 <g>
  <title>Layer 1</title>
  <g id="svg_13">
   <g id="layer1">
    <path fill="#000000" id="rect4886" d="m579.092896,41.613007c-124.669983,0.735001 -249.345978,-0.138 -374.016998,0.330994c-33.875977,0.272003 -40.957001,1.215012 -46.264008,2.075012c-32.00399,5.18399 -45.229988,11.380005 -65.093987,30.593994c-22.936005,22.186005 -38.608994,46.048004 -52.5,79.875c-4.476997,10.903015 -12.027,32.811005 -15.5,44.937012l-1.5,5.25l17.375,-0.031006l6.343994,-10.281006c15.054001,-24.471008 33.057007,-45.134003 47.469009,-54.5c17.983002,-11.687012 41.996986,-17.161987 75.562019,-17.187012l11.343994,0c-2.598999,29.804016 -4.59201,59.661011 -6.75,89.5c-6.703003,93.242004 -6.803009,94.424988 -10.562012,118.5c-10.955017,70.14801 -20.596008,96.734009 -49.813011,137.375c-26.328995,36.622986 -30.847992,45.18399 -33.030991,62.593048c-3.031998,24.179932 9.682999,44.375977 33.030991,52.5c10.888,3.579956 23.551994,3.650024 34.030998,-1.218018l0,0.031006c12.055023,-5.935059 26.101013,-22.343018 34.844025,-40.687988c15.984985,-33.541046 33.796997,-126.340057 46,-239.594025c1.033997,-9.597015 13.031006,-174.355011 13.031006,-178.792999l140.25,-0.207001c-9.209015,64.187988 -14.802002,128.899994 -20.312012,193.5c-1.714996,22.464966 -2.343018,96.724976 -1,117.156982c3.751984,57.075012 12.988983,92.630035 29.906006,115.000031c14.679993,19.411011 32.21402,31.322998 52.813019,35.906006c9.238953,2.054932 28.462952,1.521973 37.842957,-1.062988c15.80603,-4.356079 32.791992,-14.857056 47.062988,-29.093018c18.536011,-18.492065 30.485046,-41.755981 39.469055,-76.907013c3.463989,-13.55304 8.967957,-42.819031 8.967957,-47.593018l-17.406006,0.343018c-2.984009,14.494019 -4.156982,19.007996 -6.468994,24.687988c-6.604004,16.228027 -19.402954,28.299988 -36.125,34.156006c-20.730957,6.190002 -42.771973,3.060974 -61.187012,-7.812012c-17.897949,-11.692017 -28.85498,-31.322998 -33.405945,-59.875c-4.769043,-99.638 6.768982,-199.584991 20.592957,-298.156982l135,-0.25l0,-81.062012l0,0z"/>
   </g>
   <ellipse ry="47" rx="47" id="svg_2" cy="99" cx="224" stroke-width="5" stroke="#000000" fill="#ffffff"/>
   <ellipse id="svg_4" ry="47" rx="47" cy="93" cx="385" stroke-width="5" stroke="#000000" fill="#ffffff"/>
   <ellipse ry="21" rx="21" id="svg_5" cy="99" cx="215" stroke-width="5" stroke="#000000" fill="#000000"/>
   <ellipse id="svg_6" ry="21" rx="21" cy="94" cx="376" stroke-width="5" stroke="#000000" fill="#000000"/>
   <ellipse transform="rotate(-14.0362, 384, 300)" ry="36" rx="80" id="svg_11" cy="300" cx="384" stroke-width="5" fill="#7f7f7f"/>
   <ellipse transform="rotate(-14.9314, 374.88, 284.799)" ry="20.520049" rx="57.610061" id="svg_12" cy="284.798749" cx="374.879214" stroke-width="5" fill="#ff0000"/>
  </g>
 </g>
</svg>